REM DIRINDEX 1\4,1\2\5,1\2\6,1\3\7,1\3\8
REM DIRNAME cjc124,folder01,folder02,folder03,folder04,folder05,folder06,folder07
TITLE ""
FILE "110_Day55_Check3_Sentences.mp3" MP3
  TRACK 01 AUDIO
    TITLE "0:"
    INDEX 01 00:00:00
  TRACK 02 AUDIO
    TITLE "4:cjc124_3600"
    INDEX 01 00:00:25
  TRACK 03 AUDIO
    TITLE "0:"
    INDEX 01 00:02:00
  TRACK 04 AUDIO
    TITLE "7:cjc124_3601"
    INDEX 01 00:02:55
  TRACK 05 AUDIO
    TITLE "0:"
    INDEX 01 00:05:14
  TRACK 06 AUDIO
    TITLE "8:cjc124_3602"
    INDEX 01 00:05:32
  TRACK 07 AUDIO
    TITLE "0:"
    INDEX 01 00:08:52
  TRACK 08 AUDIO
    TITLE "7:cjc124_3603"
    INDEX 01 00:09:14
  TRACK 09 AUDIO
    TITLE "0:"
    INDEX 01 00:13:20
  TRACK 10 AUDIO
    TITLE "8:cjc124_3604"
    INDEX 01 00:13:37
  TRACK 11 AUDIO
    TITLE "0:"
    INDEX 01 00:17:45
  TRACK 12 AUDIO
    TITLE "7:cjc124_3605"
    INDEX 01 00:18:07
  TRACK 13 AUDIO
    TITLE "0:"
    INDEX 01 00:20:71
  TRACK 14 AUDIO
    TITLE "8:cjc124_3606"
    INDEX 01 00:21:17
  TRACK 15 AUDIO
    TITLE "0:"
    INDEX 01 00:24:47
  TRACK 16 AUDIO
    TITLE "7:cjc124_3607"
    INDEX 01 00:25:09
  TRACK 17 AUDIO
    TITLE "0:"
    INDEX 01 00:29:01
  TRACK 18 AUDIO
    TITLE "8:cjc124_3608"
    INDEX 01 00:29:17
  TRACK 19 AUDIO
    TITLE "0:"
    INDEX 01 00:32:60
  TRACK 20 AUDIO
    TITLE "7:cjc124_3609"
    INDEX 01 00:33:19
  TRACK 21 AUDIO
    TITLE "0:"
    INDEX 01 00:36:05
  TRACK 22 AUDIO
    TITLE "8:cjc124_3610"
    INDEX 01 00:36:25
  TRACK 23 AUDIO
    TITLE "0:"
    INDEX 01 00:39:72
  TRACK 24 AUDIO
    TITLE "7:cjc124_3611"
    INDEX 01 00:40:36
  TRACK 25 AUDIO
    TITLE "0:"
    INDEX 01 00:43:11
  TRACK 26 AUDIO
    TITLE "8:cjc124_3612"
    INDEX 01 00:43:33
  TRACK 27 AUDIO
    TITLE "0:"
    INDEX 01 00:46:29
  TRACK 28 AUDIO
    TITLE "7:cjc124_3613"
    INDEX 01 00:46:70
  TRACK 29 AUDIO
    TITLE "0:"
    INDEX 01 00:50:50
  TRACK 30 AUDIO
    TITLE "8:cjc124_3614"
    INDEX 01 00:50:62
  TRACK 31 AUDIO
    TITLE "0:"
    INDEX 01 00:53:53
  TRACK 32 AUDIO
    TITLE "7:cjc124_3615"
    INDEX 01 00:54:13
  TRACK 33 AUDIO
    TITLE "0:"
    INDEX 01 00:56:67
  TRACK 34 AUDIO
    TITLE "8:cjc124_3616"
    INDEX 01 00:57:11
  TRACK 35 AUDIO
    TITLE "0:"
    INDEX 01 01:00:59
  TRACK 36 AUDIO
    TITLE "7:cjc124_3617"
    INDEX 01 01:01:27
  TRACK 37 AUDIO
    TITLE "0:"
    INDEX 01 01:03:67
  TRACK 38 AUDIO
    TITLE "8:cjc124_3618"
    INDEX 01 01:04:09
  TRACK 39 AUDIO
    TITLE "0:"
    INDEX 01 01:06:53
  TRACK 40 AUDIO
    TITLE "7:cjc124_3619"
    INDEX 01 01:07:25
  TRACK 41 AUDIO
    TITLE "0:"
    INDEX 01 01:09:67
  TRACK 42 AUDIO
    TITLE "8:cjc124_3620"
    INDEX 01 01:10:06
  TRACK 43 AUDIO
    TITLE "0:"
    INDEX 01 01:12:32
  TRACK 44 AUDIO
    TITLE "7:cjc124_3621"
    INDEX 01 01:12:70
  TRACK 45 AUDIO
    TITLE "0:"
    INDEX 01 01:15:42
  TRACK 46 AUDIO
    TITLE "8:cjc124_3622"
    INDEX 01 01:15:62
  TRACK 47 AUDIO
    TITLE "0:"
    INDEX 01 01:19:46
  TRACK 48 AUDIO
    TITLE "7:cjc124_3623"
    INDEX 01 01:20:08
  TRACK 49 AUDIO
    TITLE "0:"
    INDEX 01 01:22:33
  TRACK 50 AUDIO
    TITLE "8:cjc124_3624"
    INDEX 01 01:22:52
  TRACK 51 AUDIO
    TITLE "0:"
    INDEX 01 01:25:21
  TRACK 52 AUDIO
    TITLE "7:cjc124_3625"
    INDEX 01 01:25:58
  TRACK 53 AUDIO
    TITLE "0:"
    INDEX 01 01:28:14
  TRACK 54 AUDIO
    TITLE "8:cjc124_3626"
    INDEX 01 01:28:29
  TRACK 55 AUDIO
    TITLE "0:"
    INDEX 01 01:31:10
  TRACK 56 AUDIO
    TITLE "7:cjc124_3627"
    INDEX 01 01:31:49
  TRACK 57 AUDIO
    TITLE "0:"
    INDEX 01 01:34:28
  TRACK 58 AUDIO
    TITLE "8:cjc124_3628"
    INDEX 01 01:34:44
  TRACK 59 AUDIO
    TITLE "0:"
    INDEX 01 01:37:09
  TRACK 60 AUDIO
    TITLE "7:cjc124_3629"
    INDEX 01 01:37:52
  TRACK 61 AUDIO
    TITLE "0:"
    INDEX 01 01:40:46
  TRACK 62 AUDIO
    TITLE "8:cjc124_3630"
    INDEX 01 01:40:60
  TRACK 63 AUDIO
    TITLE "0:"
    INDEX 01 01:43:17
  TRACK 64 AUDIO
    TITLE "7:cjc124_3631"
    INDEX 01 01:43:54
  TRACK 65 AUDIO
    TITLE "0:"
    INDEX 01 01:45:57
  TRACK 66 AUDIO
    TITLE "8:cjc124_3632"
    INDEX 01 01:45:71
  TRACK 67 AUDIO
    TITLE "0:"
    INDEX 01 01:47:56
